<svg id="Layer_1" data-name="Layer 1" xmlns="http://www.w3.org/2000/svg" viewBox="0 0 1072.16 1072.16"><path d="M536.08,1072.16c-143.19,0-277.81-55.76-379.07-157S0,679.27,0,536.08,55.76,258.27,157,157,392.89,0,536.08,0,813.9,55.76,915.15,157s157,235.88,157,379.07-55.76,277.82-157,379.07S679.27,1072.16,536.08,1072.16Zm.59-1030.51c-273.09-.32-495.34,221.92-495,495C42,805.87,266.3,1030.2,535.5,1030.51c273.09.32,495.33-221.92,495-495C1030.2,266.3,805.87,42,536.67,41.65Z"/><rect x="285.26" y="526.98" width="41.65" height="334.65" rx="20.83"/><path d="M768.19,616.83h0A20.83,20.83,0,0,1,747.36,596V309.49c0-18.56-22.43-27.85-35.55-14.73L550.34,456.23a20.81,20.81,0,0,1-29.45,0L362.47,297.82c-13.12-13.12-35.55-3.83-35.55,14.72V399.7a20.83,20.83,0,0,1-20.83,20.82h0a20.83,20.83,0,0,1-20.83-20.82V212c0-18.55,22.44-27.84,35.56-14.72L520.89,397.33a20.83,20.83,0,0,0,29.45,0L753.46,194.2c13.12-13.12,35.56-3.83,35.56,14.73V596A20.83,20.83,0,0,1,768.19,616.83Z"/><rect x="746.13" y="721.9" width="41.65" height="141.54" rx="20.83"/><path d="M273,748.92a112.55,112.55,0,0,1-21.58-2c-31-6-56-25.13-74.33-56.8-17.58-30.44-21.39-62.63-11.31-95.69,23.17-76,115.92-135.66,156.92-158.86a20.85,20.85,0,0,1,29,9h0a20.87,20.87,0,0,1-8.47,27.33c-36.36,20.64-118.9,73.26-137.59,134.72-6.65,21.86-4.18,42.36,7.54,62.66,12.17,21.06,27.28,33.08,46.2,36.75C318,717.39,404.42,649.82,456,609.44c9.33-7.3,18.14-14.19,25.74-19.82l35.58-27.39c7.91-5.68,17.94-13.43,29.56-22.41,67.79-52.39,181.25-140.06,265.88-123.39,29.46,5.81,52.74,23.18,69.18,51.65,17.58,30.44,21.39,62.63,11.31,95.69-23.17,76-115.92,135.65-156.92,158.85a20.84,20.84,0,0,1-29-9h0a20.86,20.86,0,0,1,8.48-27.32C752.22,665.65,834.76,613,853.45,551.58c6.65-21.86,4.18-42.36-7.55-62.66-10.3-17.85-23.77-28.2-41.16-31.62-66.1-13.05-174.25,70.57-232.36,115.48-11.79,9.11-22,17-30.44,23.08L506.71,623c-7.19,5.32-15.45,11.78-25,19.27C426.37,685.53,345.33,748.92,273,748.92Z"/></svg>